<svg width="80" height="34" viewBox="0 0 80 34" fill="none" xmlns="http://www.w3.org/2000/svg">
<path d="M46.206 33.5H52.1339C52.6923 33.5003 53.2415 33.3577 53.7297 33.0858C54.2178 32.8138 54.6288 32.4215 54.9237 31.9458L63.1036 18.8171L71.2835 31.9458C71.5784 32.4215 71.9894 32.8138 72.4775 33.0858C72.9657 33.3577 73.5149 33.5003 74.0733 33.5H80L74.0721 23.9859L65.9217 10.9005C65.7873 10.6763 65.6265 10.4691 65.443 10.2832L65.4258 10.2659L65.4086 10.2487C65.1564 9.99945 64.8654 9.79305 64.5471 9.63758H64.5348L64.4844 9.61291L64.4536 9.59808L64.4278 9.58697C64.0097 9.40088 63.5573 9.30499 63.0999 9.30551C62.6425 9.30499 62.1902 9.40088 61.7721 9.58697L61.7462 9.59808L61.7155 9.61291L61.665 9.63758H61.6527C61.3345 9.79309 61.0435 9.99949 60.7913 10.2487L60.7741 10.2659L60.7581 10.2832C60.5745 10.4691 60.4138 10.6763 60.2793 10.9005L52.129 23.9859L46.206 33.5ZM28.6549 33.5H34.5828C35.1412 33.5004 35.6905 33.3579 36.1787 33.0859C36.6669 32.814 37.0778 32.4215 37.3726 31.9458L48.7608 13.6682L49.8536 11.9152L51.4804 9.30429H45.5525C44.994 9.30412 44.4447 9.44687 43.9565 9.71905C43.4684 9.99123 43.0575 10.3838 42.7627 10.8597L40.8984 13.8521L28.6549 33.5ZM0.00984494 9.30304H5.93773C6.49457 9.30456 7.04188 9.44812 7.52819 9.72022C8.0145 9.99232 8.42383 10.384 8.7177 10.8585L16.9468 23.9859L30.6067 2.05421C30.9016 1.57855 31.3125 1.18619 31.8007 0.914236C32.2889 0.64228 32.8381 0.499707 33.3965 0.5H39.3281L19.7613 31.8977C19.6268 32.1218 19.4661 32.3291 19.2826 32.5149L19.2653 32.5322L19.2481 32.5495C18.9958 32.7986 18.7049 33.005 18.3867 33.1605H18.3744L18.3239 33.1852L18.2931 33.2L18.2673 33.2111C17.8492 33.3972 17.3968 33.4931 16.9395 33.4926C16.4821 33.4931 16.0297 33.3973 15.6116 33.2111L15.5858 33.2L15.555 33.1852L15.5046 33.1605H15.4922C15.174 33.005 14.8831 32.7986 14.6308 32.5495L14.6136 32.5322L14.5964 32.5149C14.4128 32.3291 14.252 32.1219 14.1176 31.8977C9.4253 24.3674 4.69235 16.8371 0 9.30675" fill="white"/>
</svg>
