<svg width="243" height="60" viewBox="0 0 243 60" fill="none" xmlns="http://www.w3.org/2000/svg">
<g clip-path="url(#clip0_2025_160)">
<path d="M135.294 49.4116H137.25L139.194 55.5526L141.194 49.4116H143.095V57.638H141.598V52.1537L139.817 57.638H138.55L136.758 52.1653V57.638H135.294V49.4116Z" fill="#00E8C5"/>
<path d="M147.633 56.8775C147.407 57.1464 147.152 57.3653 146.868 57.5343C146.591 57.7032 146.23 57.7877 145.786 57.7877C145.531 57.7877 145.287 57.7532 145.054 57.684C144.828 57.6149 144.628 57.5074 144.453 57.3614C144.286 57.2155 144.151 57.0312 144.049 56.8084C143.947 56.578 143.896 56.3053 143.896 55.9904C143.896 55.5756 143.983 55.2376 144.158 54.9765C144.333 54.7153 144.563 54.5118 144.847 54.3659C145.131 54.2199 145.447 54.1162 145.797 54.0548C146.154 53.9933 146.515 53.9549 146.879 53.9396L147.611 53.905V53.6054C147.611 53.2368 147.512 52.9833 147.316 52.845C147.126 52.7068 146.901 52.6376 146.638 52.6376C146.034 52.6376 145.688 52.8796 145.6 53.3635L144.202 53.2252C144.304 52.5954 144.566 52.1422 144.989 51.8657C145.411 51.5815 145.979 51.4394 146.693 51.4394C147.13 51.4394 147.501 51.497 147.807 51.6122C148.113 51.7198 148.357 51.8772 148.539 52.0846C148.729 52.292 148.863 52.5455 148.944 52.845C149.031 53.1369 149.075 53.4672 149.075 53.8359V57.638H147.633V56.8775ZM147.6 54.9535L146.922 54.988C146.602 55.0034 146.343 55.0379 146.147 55.0917C145.95 55.1455 145.797 55.2146 145.688 55.2991C145.586 55.3759 145.517 55.4681 145.48 55.5756C145.444 55.6831 145.426 55.8022 145.426 55.9328C145.426 56.1325 145.491 56.2899 145.622 56.4052C145.753 56.5204 145.935 56.578 146.169 56.578C146.562 56.578 146.882 56.482 147.13 56.2899C147.268 56.1824 147.381 56.048 147.469 55.8867C147.556 55.7177 147.6 55.5103 147.6 55.2645V54.9535Z" fill="#00E8C5"/>
<path d="M150.042 51.6237H151.528V52.4533C151.754 52.1 152.02 51.8427 152.325 51.6814C152.639 51.5201 152.963 51.4394 153.298 51.4394C153.946 51.4394 154.427 51.6199 154.74 51.9809C155.053 52.3342 155.21 52.8949 155.21 53.663V57.638H153.68V53.882C153.68 53.4595 153.604 53.1715 153.451 53.0178C153.298 52.8642 153.094 52.7874 152.839 52.7874C152.642 52.7874 152.471 52.8181 152.325 52.8796C152.187 52.941 152.056 53.0294 151.932 53.1446C151.83 53.2521 151.743 53.3827 151.67 53.5363C151.604 53.6822 151.572 53.8435 151.572 54.0202V57.638H150.042V51.6237Z" fill="#00E8C5"/>
<path d="M156.53 52.8796H155.634V51.6237H156.53V50.0223H158.059V51.6237H159.37V52.8796H158.059V55.6563C158.059 55.9712 158.121 56.1862 158.245 56.3015C158.369 56.409 158.529 56.4628 158.726 56.4628C158.828 56.4628 158.929 56.4589 159.031 56.4512C159.141 56.4359 159.246 56.4128 159.348 56.3821L159.567 57.5688C159.356 57.638 159.148 57.684 158.944 57.7071C158.747 57.7378 158.558 57.7532 158.376 57.7532C157.75 57.7532 157.283 57.5957 156.977 57.2808C156.679 56.9659 156.53 56.4359 156.53 55.6908V52.8796Z" fill="#00E8C5"/>
<path d="M160.003 51.6237H161.532V57.638H160.003V51.6237ZM159.981 49.4116H161.554V50.8633H159.981V49.4116Z" fill="#00E8C5"/>
<path d="M166.521 56.843C166.084 57.4959 165.494 57.8223 164.751 57.8223C163.95 57.8223 163.353 57.5381 162.959 56.9697C162.566 56.4013 162.369 55.614 162.369 54.6078C162.369 54.1393 162.424 53.713 162.533 53.3289C162.65 52.9372 162.814 52.6031 163.025 52.3266C163.236 52.0424 163.495 51.8234 163.801 51.6698C164.107 51.5162 164.453 51.4394 164.839 51.4394C165.123 51.4394 165.403 51.4932 165.68 51.6007C165.964 51.7082 166.23 51.9156 166.477 52.2229V49.4116H168.007V57.638H166.521V56.843ZM166.488 54.5617C166.488 54.1777 166.456 53.8704 166.39 53.64C166.332 53.4096 166.233 53.2214 166.095 53.0754C165.964 52.9372 165.818 52.8489 165.658 52.8105C165.505 52.7644 165.352 52.7413 165.199 52.7413C165.032 52.7413 164.871 52.7759 164.718 52.845C164.573 52.9141 164.442 53.0217 164.325 53.1676C164.216 53.3136 164.128 53.5056 164.063 53.7437C163.997 53.9818 163.965 54.266 163.965 54.5963C163.965 54.9573 163.994 55.2607 164.052 55.5065C164.118 55.7446 164.205 55.9405 164.314 56.0941C164.423 56.24 164.551 56.3475 164.697 56.4167C164.842 56.4781 164.999 56.5088 165.166 56.5088C165.531 56.5088 165.829 56.3975 166.062 56.1747C166.208 56.0211 166.314 55.8368 166.379 55.6217C166.452 55.3989 166.488 55.1148 166.488 54.7691V54.5617Z" fill="#00E8C5"/>
<path d="M171.722 57.8223C170.805 57.8223 170.094 57.5458 169.592 56.9928C169.089 56.4397 168.838 55.6486 168.838 54.6193C168.838 54.1277 168.904 53.6861 169.035 53.2944C169.173 52.8949 169.366 52.5608 169.614 52.292C169.869 52.0155 170.175 51.8042 170.532 51.6583C170.888 51.5124 171.285 51.4394 171.722 51.4394C172.167 51.4394 172.567 51.5124 172.924 51.6583C173.281 51.8042 173.583 52.0155 173.831 52.292C174.086 52.5608 174.279 52.8949 174.41 53.2944C174.541 53.6861 174.607 54.1277 174.607 54.6193C174.607 55.1186 174.537 55.5679 174.399 55.9673C174.268 56.3591 174.075 56.6932 173.82 56.9697C173.572 57.2462 173.27 57.4575 172.913 57.6034C172.556 57.7493 172.159 57.8223 171.722 57.8223ZM171.722 56.5319C172.159 56.5319 172.484 56.3668 172.695 56.0365C172.913 55.7062 173.022 55.2338 173.022 54.6193C173.022 54.0048 172.913 53.5363 172.695 53.2137C172.484 52.8911 172.159 52.7298 171.722 52.7298C171.285 52.7298 170.958 52.8911 170.739 53.2137C170.528 53.5363 170.422 54.0048 170.422 54.6193C170.422 55.2415 170.528 55.7177 170.739 56.048C170.95 56.3706 171.278 56.5319 171.722 56.5319Z" fill="#00E8C5"/>
<path d="M177.544 51.6237H179.03V52.4187C179.467 51.7658 180.064 51.4394 180.822 51.4394C181.616 51.4394 182.209 51.7236 182.603 52.292C182.996 52.8604 183.193 53.64 183.193 54.6308C183.193 55.1071 183.134 55.541 183.018 55.9328C182.909 56.3245 182.745 56.6625 182.526 56.9467C182.315 57.2232 182.056 57.4382 181.75 57.5919C181.445 57.7455 181.099 57.8223 180.713 57.8223C180.428 57.8223 180.144 57.7685 179.86 57.661C179.584 57.5535 179.321 57.3384 179.074 57.0158V59.8731H177.544V51.6237ZM179.063 54.6769C179.063 55.0687 179.092 55.3836 179.15 55.6217C179.216 55.8521 179.318 56.0403 179.456 56.1862C179.602 56.3245 179.747 56.4167 179.893 56.4628C180.046 56.5012 180.199 56.5204 180.352 56.5204C180.519 56.5204 180.68 56.4858 180.833 56.4167C180.986 56.3475 181.117 56.24 181.226 56.0941C181.343 55.9405 181.434 55.7446 181.499 55.5065C181.565 55.2684 181.597 54.9803 181.597 54.6424C181.597 54.289 181.565 53.9933 181.499 53.7552C181.441 53.5171 181.357 53.3251 181.248 53.1791C181.139 53.0255 181.007 52.918 180.855 52.8565C180.709 52.7874 180.552 52.7528 180.385 52.7528C180.195 52.7528 180.031 52.7797 179.893 52.8335C179.755 52.8873 179.62 52.9718 179.489 53.087C179.343 53.2329 179.234 53.4173 179.161 53.64C179.096 53.8628 179.063 54.1469 179.063 54.4926V54.6769Z" fill="#00E8C5"/>
<path d="M186.604 57.8223C185.687 57.8223 184.976 57.5458 184.474 56.9928C183.971 56.4397 183.72 55.6486 183.72 54.6193C183.72 54.1277 183.786 53.6861 183.917 53.2944C184.055 52.8949 184.248 52.5608 184.496 52.292C184.751 52.0155 185.057 51.8042 185.413 51.6583C185.77 51.5124 186.167 51.4394 186.604 51.4394C187.049 51.4394 187.449 51.5124 187.806 51.6583C188.163 51.8042 188.465 52.0155 188.713 52.292C188.968 52.5608 189.161 52.8949 189.292 53.2944C189.423 53.6861 189.489 54.1277 189.489 54.6193C189.489 55.1186 189.419 55.5679 189.281 55.9673C189.15 56.3591 188.957 56.6932 188.702 56.9697C188.454 57.2462 188.152 57.4575 187.795 57.6034C187.438 57.7493 187.041 57.8223 186.604 57.8223ZM186.604 56.5319C187.041 56.5319 187.365 56.3668 187.577 56.0365C187.795 55.7062 187.904 55.2338 187.904 54.6193C187.904 54.0048 187.795 53.5363 187.577 53.2137C187.365 52.8911 187.041 52.7298 186.604 52.7298C186.167 52.7298 185.84 52.8911 185.621 53.2137C185.41 53.5363 185.304 54.0048 185.304 54.6193C185.304 55.2415 185.41 55.7177 185.621 56.048C185.832 56.3706 186.16 56.5319 186.604 56.5319Z" fill="#00E8C5"/>
<path d="M190.321 51.6237H191.807V52.4648C191.997 52.1499 192.226 51.9156 192.495 51.762C192.765 51.6007 193.049 51.5201 193.348 51.5201C193.493 51.5201 193.613 51.5277 193.708 51.5431C193.803 51.5508 193.887 51.5623 193.959 51.5777L193.774 53.0409C193.599 52.9948 193.384 52.9718 193.129 52.9718C192.962 52.9718 192.801 52.9948 192.648 53.0409C192.495 53.0793 192.357 53.1561 192.233 53.2713C192.102 53.3942 192.004 53.5325 191.938 53.6861C191.88 53.8397 191.851 53.9972 191.851 54.1585V57.638H190.321V51.6237Z" fill="#00E8C5"/>
<path d="M196.086 51.6237H197.855L199.134 55.806L200.412 51.6237H202.105L199.855 57.638H198.325L196.086 51.6237Z" fill="#00E8C5"/>
<path d="M202.558 51.6237H204.087V57.638H202.558V51.6237ZM202.536 49.4116H204.109V50.8633H202.536V49.4116Z" fill="#00E8C5"/>
<path d="M208.508 56.8775C208.282 57.1464 208.027 57.3653 207.743 57.5343C207.466 57.7032 207.106 57.7877 206.661 57.7877C206.406 57.7877 206.162 57.7532 205.929 57.684C205.704 57.6149 205.503 57.5074 205.328 57.3614C205.161 57.2155 205.026 57.0312 204.924 56.8084C204.822 56.578 204.771 56.3053 204.771 55.9904C204.771 55.5756 204.859 55.2376 205.033 54.9765C205.208 54.7153 205.438 54.5118 205.722 54.3659C206.006 54.2199 206.323 54.1162 206.672 54.0548C207.029 53.9933 207.39 53.9549 207.754 53.9396L208.486 53.905V53.6054C208.486 53.2368 208.388 52.9833 208.191 52.845C208.002 52.7068 207.776 52.6376 207.514 52.6376C206.909 52.6376 206.563 52.8796 206.476 53.3635L205.077 53.2252C205.179 52.5954 205.441 52.1422 205.864 51.8657C206.286 51.5815 206.854 51.4394 207.568 51.4394C208.005 51.4394 208.377 51.497 208.683 51.6122C208.988 51.7198 209.232 51.8772 209.415 52.0846C209.604 52.292 209.739 52.5455 209.819 52.845C209.906 53.1369 209.95 53.4672 209.95 53.8359V57.638H208.508V56.8775ZM208.475 54.9535L207.798 54.988C207.477 55.0034 207.219 55.0379 207.022 55.0917C206.825 55.1455 206.672 55.2146 206.563 55.2991C206.461 55.3759 206.392 55.4681 206.355 55.5756C206.319 55.6831 206.301 55.8022 206.301 55.9328C206.301 56.1325 206.366 56.2899 206.497 56.4052C206.629 56.5204 206.811 56.578 207.044 56.578C207.437 56.578 207.758 56.482 208.005 56.2899C208.144 56.1824 208.256 56.048 208.344 55.8867C208.431 55.7177 208.475 55.5103 208.475 55.2645V54.9535Z" fill="#00E8C5"/>
<path d="M210.915 55.783H212.477V57.638H210.915V55.783Z" fill="#00E8C5"/>
<path d="M217.062 56.843C216.625 57.4959 216.036 57.8223 215.293 57.8223C214.491 57.8223 213.894 57.5381 213.501 56.9697C213.108 56.4013 212.911 55.614 212.911 54.6078C212.911 54.1393 212.965 53.713 213.075 53.3289C213.191 52.9372 213.355 52.6031 213.566 52.3266C213.778 52.0424 214.036 51.8234 214.342 51.6698C214.648 51.5162 214.994 51.4394 215.38 51.4394C215.664 51.4394 215.944 51.4932 216.221 51.6007C216.505 51.7082 216.771 51.9156 217.019 52.2229V49.4116H218.548V57.638H217.062V56.843ZM217.03 54.5617C217.03 54.1777 216.997 53.8704 216.931 53.64C216.873 53.4096 216.775 53.2214 216.636 53.0754C216.505 52.9372 216.36 52.8489 216.199 52.8105C216.046 52.7644 215.893 52.7413 215.741 52.7413C215.573 52.7413 215.413 52.7759 215.26 52.845C215.114 52.9141 214.983 53.0217 214.867 53.1676C214.757 53.3136 214.67 53.5056 214.604 53.7437C214.539 53.9818 214.506 54.266 214.506 54.5963C214.506 54.9573 214.535 55.2607 214.593 55.5065C214.659 55.7446 214.746 55.9405 214.856 56.0941C214.965 56.24 215.092 56.3475 215.238 56.4167C215.384 56.4781 215.54 56.5088 215.708 56.5088C216.072 56.5088 216.371 56.3975 216.604 56.1747C216.749 56.0211 216.855 55.8368 216.92 55.6217C216.993 55.3989 217.03 55.1148 217.03 54.7691V54.5617Z" fill="#00E8C5"/>
<path d="M219.587 51.6237H221.117V57.638H219.587V51.6237ZM219.565 49.4116H221.138V50.8633H219.565V49.4116Z" fill="#00E8C5"/>
<path d="M223.746 58.0182C223.775 58.1718 223.815 58.2947 223.866 58.3868C223.924 58.479 223.997 58.552 224.084 58.6058C224.179 58.6595 224.288 58.6941 224.412 58.7095C224.543 58.7325 224.7 58.744 224.882 58.744C225.166 58.744 225.388 58.6864 225.548 58.5712C225.708 58.4637 225.825 58.3177 225.898 58.1334C225.978 57.949 226.025 57.7378 226.04 57.4997C226.062 57.2616 226.073 57.0158 226.073 56.7623V56.578C225.883 56.8699 225.639 57.0926 225.341 57.2462C225.049 57.3922 224.718 57.4651 224.346 57.4651C223.545 57.4651 222.944 57.1925 222.544 56.6471C222.15 56.1018 221.954 55.3682 221.954 54.4465C221.954 54.0087 222.008 53.6054 222.118 53.2368C222.234 52.8681 222.398 52.5531 222.609 52.292C222.82 52.0232 223.079 51.8158 223.385 51.6698C223.698 51.5162 224.048 51.4394 224.434 51.4394C224.74 51.4394 225.035 51.5008 225.319 51.6237C225.61 51.7466 225.876 51.9732 226.116 52.3035V51.6237H227.602V56.7969C227.602 57.3038 227.551 57.7532 227.449 58.1449C227.355 58.5443 227.198 58.8823 226.979 59.1588C226.768 59.4353 226.488 59.6427 226.138 59.7809C225.796 59.9269 225.377 59.9999 224.882 59.9999C224.423 59.9999 224.03 59.9576 223.702 59.8731C223.381 59.7963 223.115 59.6734 222.904 59.5044C222.693 59.3431 222.529 59.1357 222.413 58.8823C222.303 58.6365 222.231 58.3484 222.194 58.0182H223.746ZM226.084 54.4235C226.084 54.0625 226.043 53.7706 225.963 53.5478C225.891 53.3251 225.792 53.1561 225.668 53.0409C225.545 52.918 225.406 52.8373 225.253 52.7989C225.1 52.7605 224.947 52.7413 224.794 52.7413C224.627 52.7413 224.467 52.7721 224.314 52.8335C224.168 52.8949 224.037 52.9948 223.92 53.1331C223.811 53.2713 223.724 53.448 223.658 53.663C223.593 53.8781 223.56 54.1354 223.56 54.435C223.56 55.0725 223.673 55.5257 223.898 55.7945C224.132 56.0557 224.419 56.1862 224.762 56.1862C224.951 56.1862 225.126 56.1594 225.286 56.1056C225.454 56.0441 225.596 55.952 225.712 55.8291C225.829 55.6985 225.92 55.5334 225.985 55.3337C226.051 55.1263 226.084 54.8766 226.084 54.5848V54.4235Z" fill="#00E8C5"/>
<path d="M228.641 51.6237H230.17V57.638H228.641V51.6237ZM228.619 49.4116H230.192V50.8633H228.619V49.4116Z" fill="#00E8C5"/>
<path d="M231.554 52.8796H230.658V51.6237H231.554V50.0223H233.083V51.6237H234.394V52.8796H233.083V55.6563C233.083 55.9712 233.145 56.1862 233.269 56.3015C233.393 56.409 233.553 56.4628 233.75 56.4628C233.852 56.4628 233.953 56.4589 234.055 56.4512C234.165 56.4359 234.27 56.4128 234.372 56.3821L234.591 57.5688C234.38 57.638 234.172 57.684 233.968 57.7071C233.771 57.7378 233.582 57.7532 233.4 57.7532C232.774 57.7532 232.307 57.5957 232.001 57.2808C231.703 56.9659 231.554 56.4359 231.554 55.6908V52.8796Z" fill="#00E8C5"/>
<path d="M238.403 56.8775C238.177 57.1464 237.922 57.3653 237.638 57.5343C237.361 57.7032 237.001 57.7877 236.556 57.7877C236.301 57.7877 236.057 57.7532 235.824 57.684C235.599 57.6149 235.398 57.5074 235.223 57.3614C235.056 57.2155 234.921 57.0312 234.819 56.8084C234.717 56.578 234.666 56.3053 234.666 55.9904C234.666 55.5756 234.754 55.2376 234.928 54.9765C235.103 54.7153 235.333 54.5118 235.617 54.3659C235.901 54.2199 236.218 54.1162 236.567 54.0548C236.924 53.9933 237.285 53.9549 237.649 53.9396L238.381 53.905V53.6054C238.381 53.2368 238.283 52.9833 238.086 52.845C237.897 52.7068 237.671 52.6376 237.409 52.6376C236.804 52.6376 236.458 52.8796 236.371 53.3635L234.972 53.2252C235.074 52.5954 235.336 52.1422 235.759 51.8657C236.181 51.5815 236.749 51.4394 237.463 51.4394C237.9 51.4394 238.272 51.497 238.578 51.6122C238.883 51.7198 239.127 51.8772 239.31 52.0846C239.499 52.292 239.634 52.5455 239.714 52.845C239.801 53.1369 239.845 53.4672 239.845 53.8359V57.638H238.403V56.8775ZM238.37 54.9535L237.693 54.988C237.372 55.0034 237.114 55.0379 236.917 55.0917C236.72 55.1455 236.567 55.2146 236.458 55.2991C236.356 55.3759 236.287 55.4681 236.25 55.5756C236.214 55.6831 236.196 55.8022 236.196 55.9328C236.196 56.1325 236.261 56.2899 236.392 56.4052C236.524 56.5204 236.706 56.578 236.939 56.578C237.332 56.578 237.653 56.482 237.9 56.2899C238.039 56.1824 238.151 56.048 238.239 55.8867C238.326 55.7177 238.37 55.5103 238.37 55.2645V54.9535Z" fill="#00E8C5"/>
<path d="M240.823 49.4116H242.353V57.638H240.823V49.4116Z" fill="#00E8C5"/>
<path d="M94.9109 20.0809L92.5104 9.50621L90.1564 20.0809H85.728L81.2764 3.55957H86.0311L88.1753 14.3425L90.506 3.6751H94.6313L97.0086 14.3425L99.083 3.55957H103.698L99.3858 20.0809H94.9109Z" fill="#00E8C5"/>
<path d="M105.003 20.0809V3.55957H116.913V7.21541H109.361V9.8533H116.447V13.5094H109.361V16.4248H117.402L117.029 20.0809H105.003Z" fill="#00E8C5"/>
<path d="M118.94 20.0809V3.55957H125.909C129.902 3.55957 131.899 4.98639 131.899 7.84028C131.899 8.6578 131.732 9.34823 131.398 9.91132C131.064 10.4742 130.547 10.9408 129.848 11.311C130.703 11.7277 131.332 12.2521 131.736 12.8845C132.14 13.5172 132.342 14.2885 132.342 15.1984C132.342 16.7719 131.794 17.979 130.699 18.8198C129.603 19.6605 128.03 20.0809 125.979 20.0809H118.94ZM125.606 16.7488C126.461 16.7488 127.082 16.5984 127.471 16.2977C127.859 15.9968 128.053 15.5302 128.053 14.8978C128.053 14.2807 127.871 13.8334 127.506 13.5556C127.14 13.2781 126.554 13.1392 125.746 13.1392H123.159V16.7488H125.606ZM125.583 9.89952C126.298 9.89952 126.81 9.78399 127.121 9.55267C127.432 9.3211 127.587 8.93558 127.587 8.39559C127.587 7.85561 127.416 7.47008 127.074 7.23851C126.733 7.0072 126.158 6.89167 125.35 6.89167H123.159V9.89952H125.583Z" fill="#00E8C5"/>
<path d="M138.868 13.3707C136.973 13.0158 135.594 12.4374 134.731 11.6352C133.869 10.833 133.438 9.73015 133.438 8.32644C133.438 6.66026 134.016 5.37987 135.174 4.48525C136.331 3.59063 137.982 3.14307 140.127 3.14307C142.209 3.14307 143.848 3.57506 145.045 4.43903C146.241 5.30276 146.925 6.55227 147.095 8.18755L142.76 8.62707C142.605 7.93287 142.321 7.43157 141.91 7.12315C141.498 6.81447 140.896 6.66026 140.103 6.66026C139.389 6.66026 138.837 6.77981 138.449 7.01892C138.06 7.25802 137.866 7.60913 137.866 8.07176C137.866 8.45754 138.014 8.76596 138.309 8.99728C138.604 9.22884 139.078 9.40616 139.73 9.52948L141.991 9.96925C143.84 10.3241 145.204 10.9141 146.082 11.7394C146.96 12.5647 147.399 13.6791 147.399 15.0831C147.399 16.8261 146.793 18.1642 145.581 19.0975C144.369 20.0308 142.636 20.4975 140.383 20.4975C138.114 20.4975 136.367 20.0077 135.139 19.0282C133.911 18.0487 133.236 16.587 133.111 14.6433H137.563C137.656 15.4302 137.948 16.0086 138.437 16.3788C138.927 16.749 139.63 16.9341 140.546 16.9341C141.323 16.9341 141.914 16.7992 142.318 16.5292C142.721 16.2592 142.924 15.8619 142.924 15.3375C142.924 14.9055 142.772 14.5662 142.469 14.3193C142.166 14.0727 141.704 13.8951 141.082 13.7871L138.868 13.3707Z" fill="#00E8C5"/>
<path d="M153.528 3.55957H149.053V20.0809H153.528V3.55957Z" fill="#00E8C5"/>
<path d="M159.821 20.0809V7.33119H155.02V3.55957H169.097V7.33119H164.295V20.0809H159.821Z" fill="#00E8C5"/>
<path d="M170.589 20.0809V3.55957H182.499V7.21541H174.947V9.8533H182.033V13.5094H174.947V16.4248H182.988L182.615 20.0809H170.589Z" fill="#00E8C5"/>
<path d="M86.8935 35.2137C84.9979 34.8588 83.6189 34.2804 82.7565 33.4782C81.8941 32.6762 81.4631 31.5732 81.4631 30.1694C81.4631 28.5033 82.0419 27.2229 83.1995 26.3283C84.3571 25.4336 86.0078 24.9863 88.152 24.9863C90.2343 24.9863 91.8736 25.4181 93.0699 26.282C94.2663 27.1458 94.9501 28.3953 95.1208 30.0306L90.7858 30.4701C90.6305 29.7761 90.3469 29.2746 89.935 28.9662C89.5234 28.6577 88.9214 28.5033 88.1288 28.5033C87.4141 28.5033 86.8626 28.6228 86.474 28.8619C86.0857 29.101 85.8914 29.4521 85.8914 29.9148C85.8914 30.3006 86.0389 30.609 86.3341 30.8405C86.6294 31.0719 87.1035 31.2492 87.7559 31.3727L90.0168 31.8123C91.8658 32.1671 93.2293 32.7571 94.1072 33.5824C94.985 34.4077 95.4239 35.5223 95.4239 36.9261C95.4239 38.6691 94.818 40.0075 93.606 40.9406C92.394 41.8738 90.6616 42.3405 88.4086 42.3405C86.1401 42.3405 84.392 41.8507 83.1646 40.8712C81.9369 39.8917 81.2612 38.43 81.1367 36.4863H85.5884C85.6817 37.2732 85.9729 37.8516 86.4624 38.2218C86.9519 38.592 87.6549 38.7771 88.5717 38.7771C89.3486 38.7771 89.9391 38.6422 90.3431 38.3722C90.7471 38.1022 90.949 37.7051 90.949 37.1805C90.949 36.7485 90.7974 36.4092 90.4946 36.1625C90.1916 35.9157 89.7294 35.7381 89.1078 35.6303L86.8935 35.2137Z" fill="#00E8C5"/>
<path d="M106.471 25.4028H110.946V35.0749C110.946 39.9187 108.584 42.3406 103.86 42.3406C99.1989 42.3406 96.8682 39.9187 96.8682 35.0749V25.4028H101.343V35.2369C101.343 36.3784 101.545 37.2115 101.949 37.7359C102.353 38.2605 103.006 38.5228 103.907 38.5228C104.808 38.5228 105.461 38.2605 105.865 37.7359C106.269 37.2115 106.471 36.3784 106.471 35.2369V25.4028Z" fill="#00E8C5"/>
<path d="M118.078 35.2137C116.182 34.8588 114.804 34.2804 113.941 33.4782C113.079 32.6762 112.648 31.5732 112.648 30.1694C112.648 28.5033 113.226 27.2229 114.384 26.3283C115.541 25.4336 117.192 24.9863 119.337 24.9863C121.419 24.9863 123.058 25.4181 124.254 26.282C125.451 27.1458 126.134 28.3953 126.305 30.0306L121.97 30.4701C121.815 29.7761 121.531 29.2746 121.12 28.9662C120.708 28.6577 120.106 28.5033 119.313 28.5033C118.598 28.5033 118.047 28.6228 117.659 28.8619C117.27 29.101 117.076 29.4521 117.076 29.9148C117.076 30.3006 117.223 30.609 117.519 30.8405C117.814 31.0719 118.288 31.2492 118.94 31.3727L121.201 31.8123C123.05 32.1671 124.414 32.7571 125.291 33.5824C126.169 34.4077 126.608 35.5223 126.608 36.9261C126.608 38.6691 126.002 40.0075 124.79 40.9406C123.579 41.8738 121.846 42.3405 119.593 42.3405C117.324 42.3405 115.576 41.8507 114.349 40.8712C113.121 39.8917 112.446 38.43 112.321 36.4863H116.773C116.866 37.2732 117.157 37.8516 117.647 38.2218C118.136 38.592 118.839 38.7771 119.756 38.7771C120.533 38.7771 121.123 38.6422 121.527 38.3722C121.931 38.1022 122.134 37.7051 122.134 37.1805C122.134 36.7485 121.982 36.4092 121.679 36.1625C121.376 35.9157 120.914 35.7381 120.292 35.6303L118.078 35.2137Z" fill="#00E8C5"/>
<path d="M132.062 41.9242V29.1745H127.261V25.4028H141.338V29.1745H136.537V41.9242H132.062Z" fill="#00E8C5"/>
<path d="M142.83 41.9242V25.4028H154.74V29.0587H147.189V31.6966H154.274V35.3527H147.189V38.2681H155.23L154.857 41.9242H142.83Z" fill="#00E8C5"/>
<path d="M167 41.9242L161.01 32.4603V41.9242H156.768V25.4028H160.683L166.673 34.8667V25.4028H170.915V41.9242H167Z" fill="#00E8C5"/>
<path d="M177.208 41.9242V29.1745H172.406V25.4028H186.484V29.1745H181.682V41.9242H177.208Z" fill="#00E8C5"/>
<path d="M196.459 41.9242L195.504 38.7541H189.887L188.954 41.9242H184.456L190.236 25.4028H195.317L201.097 41.9242H196.459ZM192.707 29.5215L190.982 35.2138H194.408L192.707 29.5215ZM194.035 24.0606H190.096L193.08 20.4741H197.881L194.035 24.0606Z" fill="#00E8C5"/>
<path d="M204.43 41.9242L198.813 25.4028H203.615L206.994 36.6715L210.374 25.4028H215.082L209.465 41.9242H204.43Z" fill="#00E8C5"/>
<path d="M216.387 41.9242V25.4028H228.297V29.0587H220.745V31.6966H227.83V35.3527H220.745V38.2681H228.786L228.413 41.9242H216.387Z" fill="#00E8C5"/>
<path d="M230.324 41.9242V25.4028H234.799V38.1526H242.164L241.768 41.9242H230.324Z" fill="#00E8C5"/>
<g clip-path="url(#clip1_2025_160)">
<path fill-rule="evenodd" clip-rule="evenodd" d="M1.25635 29.8297C0.442708 27.5059 0 25.0074 0 22.4057C0 10.0395 10.0005 0 22.3185 0C25.2585 0 28.0666 0.57236 30.6383 1.61115C31.4298 1.9307 31.8138 2.83525 31.4952 3.62983C31.1769 4.42416 30.2759 4.80969 29.4847 4.49014C27.2696 3.59545 24.8508 3.10323 22.3185 3.10323C20.2102 3.10323 18.1807 3.44478 16.2817 4.07528C15.9153 6.70551 15.6242 9.32739 15.4107 11.9412C19.1865 11.7463 22.9805 11.7248 26.7919 11.8706C30.5499 4.80919 37.9654 0 46.4909 0C58.8089 0 68.8096 10.0395 68.8096 22.4057C68.8096 34.7716 58.8092 44.8117 46.4909 44.8117C43.8616 44.8117 41.3378 44.3536 38.9941 43.5135C38.1907 43.2258 37.7712 42.3372 38.058 41.5307C38.3449 40.724 39.23 40.3031 40.0333 40.591C42.052 41.3143 44.226 41.7084 46.4909 41.7084C57.103 41.7084 65.7182 33.0591 65.7182 22.4057C65.7182 11.7523 57.103 3.10323 46.4909 3.10323C43.0638 3.10323 39.845 4.00525 37.0573 5.58556C41.704 9.6927 44.6372 15.708 44.6372 22.4057C44.6372 29.8949 40.9691 36.5306 35.3398 40.6001C35.3172 40.6168 35.2945 40.6332 35.2713 40.6494C31.6181 43.2693 27.1462 44.8117 22.3185 44.8117C12.899 44.8117 4.83453 38.9407 1.56106 30.6483C1.3863 30.4137 1.27776 30.1305 1.25635 29.8297ZM13.011 39.2969C12.7071 37.0727 12.4658 34.8419 12.2855 32.6045C10.0239 32.3997 7.762 32.1204 5.50036 31.7624C7.25079 34.924 9.8602 37.5419 13.011 39.2969ZM4.11054 16.1929C3.44975 18.1428 3.09115 20.2326 3.09115 22.4057C3.09115 24.4858 3.41953 26.4896 4.02718 28.3674C6.70912 28.8475 9.39105 29.2121 12.073 29.4682C11.8141 24.7637 11.8214 20.0311 12.0843 15.2714C9.41674 15.4876 6.75873 15.794 4.11054 16.1929ZM25.4466 14.9306C22.0138 14.8323 18.5955 14.8743 15.1923 15.0606C14.9068 19.9757 14.8992 24.8617 15.1833 29.7167C18.6038 29.9371 22.0241 29.9854 25.4446 29.8755C24.6207 27.5387 24.1724 25.0243 24.1724 22.4057C24.1724 19.7851 24.6214 17.2689 25.4466 14.9306ZM32.9367 36.3097C32.9432 36.316 32.9495 36.3223 32.9558 36.3289C32.9558 36.3289 33.8296 37.2769 34.3124 37.2769C34.7954 37.2769 35.8533 36.3294 35.8533 36.3294C35.8599 36.3228 35.8664 36.3163 35.8727 36.3097V31.4504L39.741 27.5671C40.3139 26.9919 40.3139 26.058 39.741 25.4829C39.1681 24.9078 38.2378 24.9078 37.6649 25.4829L35.8727 27.2821V23.4101L39.289 19.9803C39.8619 19.4051 39.8619 18.4715 39.289 17.8963C38.7161 17.3212 37.7858 17.3212 37.2129 17.8963L35.8727 19.2418V16.0524C35.8727 15.2391 35.2149 14.5787 34.4048 14.5787C33.5947 14.5787 32.9367 15.2391 32.9367 16.0524V19.2418L31.6169 17.9166C31.044 17.3414 30.1137 17.3414 29.5408 17.9166C28.9679 18.4917 28.9679 19.4256 29.5408 20.0007L32.9367 23.4101V27.2821L31.1447 25.4829C30.5718 24.9078 29.6415 24.9078 29.0686 25.4829C28.4957 26.058 28.4957 26.9919 29.0686 27.5671L32.9367 31.4504V36.3097ZM12.9692 5.53803C9.90503 7.25486 7.3558 9.78851 5.61494 12.845C7.83452 12.5482 10.0607 12.3143 12.2933 12.1419C12.4656 9.94626 12.6912 7.74506 12.9692 5.53803ZM26.7861 32.9306C22.9929 33.0935 19.1999 33.0694 15.4069 32.8399C15.631 35.4886 15.9435 38.1276 16.3462 40.7574C18.2266 41.3745 20.2339 41.7084 22.3185 41.7084C25.7456 41.7084 28.9644 40.8064 31.7521 39.2261C29.7438 37.4509 28.0558 35.3194 26.7861 32.9306Z" fill="#00E8C5"/>
</g>
</g>
<defs>
<clipPath id="clip0_2025_160">
<rect width="242.353" height="60" fill="white"/>
</clipPath>
<clipPath id="clip1_2025_160">
<rect width="69" height="45" fill="white"/>
</clipPath>
</defs>
</svg>
