<svg width="127" height="89" viewBox="0 0 127 89" fill="none" xmlns="http://www.w3.org/2000/svg">
<g id="selo-website-sustentavel 1" clip-path="url(#clip0_1893_2036)">
<path id="Vector" d="M121.454 1.3302H5.54601C2.94255 1.3302 0.832031 3.43643 0.832031 6.0346V82.9654C0.832031 85.5636 2.94255 87.6698 5.54601 87.6698H121.454C124.058 87.6698 126.168 85.5636 126.168 82.9654V6.0346C126.168 3.43643 124.058 1.3302 121.454 1.3302Z" stroke="#00E8C5" stroke-width="3"/>
<g id="Clip path group">
<mask id="mask0_1893_2036" style="mask-type:luminance" maskUnits="userSpaceOnUse" x="16" y="17" width="39" height="26">
<g id="clip0_1893_2012">
<path id="Vector_2" d="M54.9041 17.1038H16.6377V42.0094H54.9041V17.1038Z" fill="white"/>
</g>
</mask>
<g mask="url(#mask0_1893_2036)">
<g id="Group">
<path id="Vector_3" fill-rule="evenodd" clip-rule="evenodd" d="M17.3345 33.6133C16.8832 32.3272 16.6377 30.9443 16.6377 29.5044C16.6377 22.6603 22.1838 17.1038 29.0152 17.1038C30.6457 17.1038 32.203 17.4206 33.6292 17.9955C34.0682 18.1723 34.2812 18.673 34.1045 19.1127C33.9279 19.5524 33.4283 19.7657 32.9895 19.5888C31.761 19.0937 30.4196 18.8213 29.0152 18.8213C27.846 18.8213 26.7204 19.0103 25.6673 19.3593C25.4641 20.815 25.3026 22.2661 25.1842 23.7127C27.2782 23.6049 29.3823 23.593 31.4961 23.6737C33.5802 19.7655 37.6927 17.1038 42.4209 17.1038C49.2522 17.1038 54.7985 22.6603 54.7985 29.5044C54.7985 36.3484 49.2524 41.9052 42.4209 41.9052C40.9627 41.9052 39.563 41.6517 38.2632 41.1867C37.8177 41.0275 37.585 40.5357 37.7441 40.0893C37.9032 39.6428 38.3941 39.4099 38.8396 39.5692C39.9591 39.9695 41.1648 40.1877 42.4209 40.1877C48.3062 40.1877 53.084 35.4006 53.084 29.5044C53.084 23.6082 48.3062 18.8213 42.4209 18.8213C40.5202 18.8213 38.7351 19.3205 37.1891 20.1952C39.7661 22.4683 41.3928 25.7975 41.3928 29.5044C41.3928 33.6494 39.3585 37.322 36.2366 39.5743C36.2241 39.5835 36.2115 39.5926 36.1986 39.6015C34.1726 41.0515 31.6926 41.9052 29.0152 41.9052C23.7913 41.9052 19.3188 38.6558 17.5035 34.0663C17.4065 33.9365 17.3463 33.7798 17.3345 33.6133ZM23.8534 38.853C23.6849 37.622 23.551 36.3873 23.4511 35.149C22.1968 35.0357 20.9424 34.8811 19.6881 34.683C20.6589 36.4328 22.106 37.8817 23.8534 38.853ZM18.9173 26.0659C18.5508 27.1451 18.352 28.3017 18.352 29.5044C18.352 30.6556 18.5341 31.7647 18.8711 32.804C20.3585 33.0697 21.8459 33.2715 23.3332 33.4132C23.1896 30.8095 23.1937 28.1902 23.3395 25.5559C21.8601 25.6755 20.386 25.8451 18.9173 26.0659ZM30.75 25.3672C28.8462 25.3128 26.9505 25.3361 25.0631 25.4392C24.9048 28.1595 24.9006 30.8637 25.0581 33.5507C26.9551 33.6727 28.8519 33.6995 30.7489 33.6386C30.292 32.3453 30.0434 30.9537 30.0434 29.5044C30.0434 28.054 30.2924 26.6614 30.75 25.3672ZM34.9039 37.1997C34.9075 37.2032 34.911 37.2067 34.9145 37.2103C34.9145 37.2103 35.3991 37.735 35.6668 37.735C35.9347 37.735 36.5214 37.2106 36.5214 37.2106C36.5251 37.2069 36.5287 37.2033 36.5322 37.1997V34.5103L38.6775 32.361C38.9952 32.0427 38.9952 31.5258 38.6775 31.2075C38.3597 30.8892 37.8438 30.8892 37.5261 31.2075L36.5322 32.2033V30.0603L38.4268 28.162C38.7445 27.8437 38.7445 27.327 38.4268 27.0086C38.1091 26.6903 37.5931 26.6903 37.2754 27.0086L36.5322 27.7533V25.9881C36.5322 25.538 36.1674 25.1725 35.7181 25.1725C35.2688 25.1725 34.9039 25.538 34.9039 25.9881V27.7533L34.172 27.0199C33.8542 26.7015 33.3383 26.7015 33.0206 27.0199C32.7029 27.3382 32.7029 27.855 33.0206 28.1733L34.9039 30.0603V32.2033L33.9101 31.2075C33.5924 30.8892 33.0764 30.8892 32.7587 31.2075C32.441 31.5258 32.441 32.0427 32.7587 32.361L34.9039 34.5103V37.1997ZM23.8302 20.1688C22.1309 21.119 20.7171 22.5213 19.7516 24.2129C20.9826 24.0487 22.2172 23.9192 23.4554 23.8238C23.5509 22.6086 23.676 21.3904 23.8302 20.1688ZM31.4929 35.3295C29.3892 35.4197 27.2857 35.4063 25.1821 35.2793C25.3064 36.7452 25.4797 38.2058 25.7031 39.6613C26.7459 40.0029 27.8591 40.1877 29.0152 40.1877C30.9158 40.1877 32.7009 39.6884 34.2469 38.8138C33.1332 37.8313 32.197 36.6516 31.4929 35.3295Z" fill="#00E8C5"/>
</g>
</g>
</g>
<path id="Vector_4" fill-rule="evenodd" clip-rule="evenodd" d="M50.2394 55.1251C49.1361 54.9196 48.3334 54.5848 47.8315 54.1204C47.3295 53.656 47.0786 53.0176 47.0786 52.205C47.0786 51.2405 47.4155 50.4992 48.0893 49.9813C48.763 49.4634 49.7238 49.2043 50.9719 49.2043C52.1839 49.2043 53.1379 49.4544 53.8343 49.9546C54.5306 50.4546 54.9286 51.1779 55.028 52.1246L52.5049 52.379C52.4145 51.9772 52.2494 51.6869 52.0097 51.5084C51.7701 51.3297 51.4196 51.2405 50.9583 51.2405C50.5424 51.2405 50.2212 51.3096 49.9952 51.4481C49.769 51.5865 49.6561 51.7898 49.6561 52.0576C49.6561 52.2809 49.742 52.4595 49.9138 52.5933C50.0856 52.7274 50.3614 52.8301 50.7413 52.9015L52.0573 53.156C53.1334 53.3615 53.9269 53.703 54.438 54.1808C54.949 54.6585 55.2044 55.3036 55.2044 56.1165C55.2044 57.1255 54.8517 57.9003 54.1463 58.4405C53.4409 58.9806 52.4325 59.2507 51.1212 59.2507C49.8007 59.2507 48.7834 58.9674 48.0688 58.4001C47.3544 57.8333 46.961 56.9871 46.8887 55.8619H49.4797C49.5339 56.3174 49.7035 56.6522 49.9885 56.8664C50.2734 57.0806 50.6825 57.188 51.2162 57.188C51.6684 57.188 52.012 57.11 52.2472 56.9533C52.4822 56.7973 52.5998 56.567 52.5998 56.2637C52.5998 56.0136 52.5116 55.8172 52.3352 55.6742C52.159 55.5315 51.8898 55.4287 51.5282 55.3662L50.2394 55.1251ZM24.6546 59.01L23.2574 52.8883L21.8873 59.01H19.3098L16.7188 49.4458H19.4862L20.7342 55.688L22.0908 49.5127H24.4919L25.8755 55.688L27.0829 49.4458H29.7688L27.2592 59.01H24.6546ZM30.5286 59.01V49.4458H37.4605V51.5621H33.0653V53.0892H37.1893V55.2057H33.0653V56.8936H37.7454L37.5284 59.01H30.5286ZM38.6408 49.4458V59.01H42.7376C43.9314 59.01 44.847 58.7665 45.4847 58.28C46.1223 57.7929 46.4411 57.0945 46.4411 56.1835C46.4411 55.6567 46.3234 55.2102 46.0883 54.844C45.8531 54.4779 45.4869 54.1743 44.9895 53.9331C45.3965 53.7188 45.6972 53.4487 45.8915 53.1228C46.086 52.7969 46.1832 52.3971 46.1832 51.9239C46.1832 50.2717 45.0212 49.4458 42.697 49.4458H38.6408ZM43.6058 56.8199C43.3797 56.9937 43.018 57.0812 42.5205 57.0812H41.0961V54.9914H42.602C43.0723 54.9914 43.4136 55.0718 43.6262 55.2325C43.8387 55.3933 43.945 55.6523 43.945 56.0097C43.945 56.3755 43.8319 56.6456 43.6058 56.8199ZM43.4022 52.9152C43.2214 53.0491 42.923 53.116 42.507 53.116H41.0961V51.3747H42.3714C42.8415 51.3747 43.1762 51.4416 43.3752 51.5755C43.5741 51.7096 43.6736 51.9327 43.6736 52.2453C43.6736 52.5579 43.5832 52.7811 43.4022 52.9152ZM56.1678 49.4458H58.7721V59.01H56.1678V49.4458ZM62.4346 59.01V51.6292H59.6406V49.4458H67.834V51.6292H65.0395V59.01H62.4346ZM68.7025 49.4458V59.01H75.7019L75.9193 56.8936H71.2392V55.2057H75.3631V53.0892H71.2392V51.5621H75.6343V49.4458H68.7025Z" fill="#00E8C5"/>
<path id="Vector_5" fill-rule="evenodd" clip-rule="evenodd" d="M83.7602 71.655L83.204 69.8202H79.9347L79.3923 71.655H76.7741L80.1383 62.0912H83.0959L86.46 71.655H83.7602ZM81.5763 64.4755L80.5725 67.7708H82.5668L81.5763 64.4755ZM82.3494 61.3141H80.0573L81.7937 59.2375H84.5877L82.3494 61.3141ZM19.9884 67.7708C18.8851 67.5649 18.0824 67.2301 17.5805 66.7657C17.0785 66.3019 16.8276 65.6632 16.8276 64.8502C16.8276 63.8861 17.1646 63.1444 17.8383 62.6269C18.5121 62.1089 19.4728 61.8499 20.7209 61.8499C21.9329 61.8499 22.887 62.1 23.5833 62.5998C24.2797 63.1001 24.6776 63.8235 24.777 64.7699L22.2539 65.0245C22.1635 64.6227 21.9984 64.3321 21.7587 64.1539C21.5191 63.9752 21.1687 63.8861 20.7074 63.8861C20.2914 63.8861 19.9704 63.9552 19.7443 64.0936C19.5182 64.232 19.4051 64.4351 19.4051 64.703C19.4051 64.9266 19.491 65.1048 19.6628 65.2387C19.8347 65.3726 20.1106 65.4756 20.4903 65.547L21.8063 65.8016C22.8824 66.0069 23.6761 66.3484 24.187 66.826C24.698 67.3042 24.9534 67.949 24.9534 68.762C24.9534 69.771 24.6008 70.5458 23.8953 71.086C23.1899 71.6262 22.1816 71.8963 20.8702 71.8963C19.5499 71.8963 18.5324 71.6129 17.818 71.0456C17.1034 70.4789 16.7101 69.6326 16.6377 68.5074H19.2287C19.2831 68.9629 19.4525 69.2978 19.7375 69.512C20.0224 69.7262 20.4316 69.8335 20.9652 69.8335C21.4174 69.8335 21.7611 69.7555 21.9962 69.5989C22.2314 69.4428 22.3488 69.2131 22.3488 68.9092C22.3488 68.6591 22.2606 68.4626 22.0844 68.3198C21.908 68.177 21.639 68.0741 21.2772 68.0115L19.9884 67.7708ZM31.3836 62.0912H33.9882V67.69C33.9882 70.4944 32.6135 71.8963 29.8642 71.8963C27.151 71.8963 25.7945 70.4944 25.7945 67.69V62.0912H28.3991V67.7841C28.3991 68.4449 28.5167 68.927 28.7519 69.2308C28.987 69.5341 29.3668 69.6863 29.8914 69.6863C30.4159 69.6863 30.7958 69.5341 31.0309 69.2308C31.2659 68.927 31.3836 68.4449 31.3836 67.7841V62.0912ZM35.7313 66.7657C36.2333 67.2301 37.0359 67.5649 38.1392 67.7708L39.4279 68.0115C39.7897 68.0741 40.0587 68.177 40.2351 68.3198C40.4115 68.4626 40.4997 68.6591 40.4997 68.9092C40.4997 69.2131 40.382 69.4428 40.1469 69.5989C39.9118 69.7555 39.5681 69.8335 39.1159 69.8335C38.5823 69.8335 38.1731 69.7262 37.8882 69.512C37.6034 69.2978 37.4338 68.9629 37.3796 68.5074H34.7885C34.8609 69.6326 35.2543 70.4789 35.9687 71.0456C36.6832 71.6129 37.7006 71.8963 39.0209 71.8963C40.3323 71.8963 41.3407 71.6262 42.0461 71.086C42.7515 70.5458 43.1043 69.771 43.1043 68.762C43.1043 67.949 42.8487 67.3042 42.3377 66.826C41.8268 66.3484 41.0332 66.0069 39.9569 65.8016L38.6412 65.547C38.2613 65.4756 37.9855 65.3726 37.8137 65.2387C37.6418 65.1048 37.5559 64.9266 37.5559 64.703C37.5559 64.4351 37.669 64.232 37.8951 64.0936C38.1212 63.9552 38.4422 63.8861 38.8583 63.8861C39.3194 63.8861 39.6698 63.9752 39.9095 64.1539C40.1493 64.3321 40.3142 64.6227 40.4047 65.0245L42.9279 64.7699C42.8284 63.8235 42.4305 63.1001 41.7341 62.5998C41.0377 62.1 40.0836 61.8499 38.8718 61.8499C37.6238 61.8499 36.6628 62.1089 35.9891 62.6269C35.3152 63.1444 34.9785 63.8861 34.9785 64.8502C34.9785 65.6632 35.2294 66.3019 35.7313 66.7657ZM46.2786 71.6555V64.2746H43.4841V62.0912H51.6777V64.2746H48.8832V71.6555H46.2786ZM52.5459 62.0912V71.6555H59.546L59.7628 69.5385H55.0827V67.851H59.2065V65.7346H55.0827V64.2076H59.4777V62.0912H52.5459ZM66.6136 71.6555L63.1269 66.1768V71.6555H60.6579V62.0912H62.9372L66.4234 67.5699V62.0912H68.8924V71.6555H66.6136ZM72.5554 64.2746V71.6555H75.1597V64.2746H77.9543V62.0912H69.7609V64.2746H72.5554ZM85.1306 62.0912L88.3999 71.6555H91.3298L94.5996 62.0912H91.8588L89.8923 68.6143L87.9252 62.0912H85.1306ZM95.3588 71.6555V62.0912H102.291V64.2076H97.8955V65.7346H102.02V67.851H97.8955V69.5385H102.576L102.359 71.6555H95.3588ZM103.471 62.0912V71.6555H110.132L110.363 69.4721H106.076V62.0912H103.471Z" fill="#00E8C5"/>
</g>
<defs>
<clipPath id="clip0_1893_2036">
<rect width="127" height="88" fill="white" transform="translate(0 0.5)"/>
</clipPath>
</defs>
</svg>
